<svg width="26" height="26" xmlns="http://www.w3.org/2000/svg"><g fill="none" fill-rule="evenodd"><path stroke-opacity=".008" stroke="#000" stroke-width=".667" d="M1 1h24v24H1z"/><path d="M21.725 15.956c-1.093 3.582-4.999 6.027-8.633 6.027A9.09 9.09 0 0 1 4 12.893c0-.987.182-2.065.493-2.998 1.006-3.016 3.682-5.24 6.747-5.891v3.8a5.418 5.418 0 0 0-3.57 5.088 5.42 5.42 0 0 0 5.422 5.42 5.416 5.416 0 0 0 5.084-3.558h3.82a8.84 8.84 0 0 1-.271 1.202z" fill="#FFF"/><path fill="#FFD12D" d="M13.692 4v3.672h4.538v4.574h3.708V4h-8.246z"/></g></svg>